<?xml version="1.0" encoding="iso-8859-1"?>
<!-- Generator: Adobe Illustrator 19.0.0, SVG Export Plug-In . SVG Version: 6.00 Build 0)  -->
<svg version="1.1" id="Capa_1" xmlns="http://www.w3.org/2000/svg" xmlns:xlink="http://www.w3.org/1999/xlink" x="0px" y="0px"
	 viewBox="0 0 386.612 386.612" style="enable-background:new 0 0 386.612 386.612;" xml:space="preserve">
<path style="fill:#1185E0;" d="M288.392,386.612H98.22c-13.061,0-24.555-10.449-26.122-23.51L47.02,77.322l31.347-2.612
	l24.555,280.555H283.69l24.555-281.078l31.347,2.612l-25.078,285.78C312.947,376.163,301.453,386.612,288.392,386.612z"/>
<path style="fill:#4DCFE0;" d="M360.49,60.082h-83.592V26.122C276.898,11.494,265.404,0,250.776,0H135.837
	c-14.629,0-26.122,11.494-26.122,26.122v33.959H26.122c-8.882,0-15.673,6.792-15.673,15.673s6.792,15.673,15.673,15.673H360.49
	c8.882,0,15.673-6.792,15.673-15.673S369.371,60.082,360.49,60.082z M141.061,31.347h104.49v28.735h-104.49V31.347z"/>
<g>
</g>
<g>
</g>
<g>
</g>
<g>
</g>
<g>
</g>
<g>
</g>
<g>
</g>
<g>
</g>
<g>
</g>
<g>
</g>
<g>
</g>
<g>
</g>
<g>
</g>
<g>
</g>
<g>
</g>
</svg>
