<svg id="Layer_1" height="512" viewBox="0 0 512 512" width="512" xmlns="http://www.w3.org/2000/svg" data-name="Layer 1"><path d="m161.76 465.76-38.36-305.76h-30l38.36 305.76a40.213 40.213 0 0 0 39.69 35.24h30a40.213 40.213 0 0 1 -39.69-35.24z" fill="#d4e1f4"/><path d="m99.626 118h-2.7a6 6 0 0 0 0 12h2.7a6 6 0 0 0 0-12z" fill="#1ae5be"/><path d="m205.7 118h-86.711a6 6 0 0 0 0 12h86.711a6 6 0 0 0 0-12z" fill="#1ae5be"/><g fill="#0635c9"><path d="m87.449 162.228 38.362 304.521a46.081 46.081 0 0 0 45.639 40.251h169.1a46.081 46.081 0 0 0 45.639-40.251l38.362-304.521-11.906-1.5-38.362 304.521a34.059 34.059 0 0 1 -33.733 29.751h-169.1a34.06 34.06 0 0 1 -33.733-29.751l-38.362-304.521z"/><path d="m250 229.056v219.763a6 6 0 0 0 12 0v-219.763a6 6 0 0 0 -12 0z"/><path d="m331.9 228.526-19.442 219.764a6 6 0 0 0 5.442 6.51c.181.016.36.023.536.023a6 6 0 0 0 5.97-5.47l19.446-219.764a6 6 0 1 0 -11.953-1.059z"/><path d="m172.448 223.079a6 6 0 0 0 -5.448 6.506l19.446 219.764a6 6 0 0 0 5.97 5.47c.177 0 .356-.007.536-.023a6 6 0 0 0 5.447-6.506l-19.445-219.764a6 6 0 0 0 -6.506-5.447z"/></g><path d="m407.35 95h-22.439l-.129-1.347a44.609 44.609 0 0 0 -44.598-40.653h-15.184v-19.157c0-15.905-13.336-28.843-29.24-28.843h-79.519c-15.904 0-29.241 12.938-29.241 28.843v19.157h-15.192a44.6 44.6 0 0 0 -44.59 40.64l-.13 1.36h-22.438c-27.24 0-49.65 22.532-49.65 49.772v16.51c0 3.318 2.936 5.718 6.249 5.718h389.5c3.313 0 6.249-2.4 6.249-5.718v-16.51c.002-27.24-22.408-49.772-49.648-49.772zm-208.35-61.157c0-9.287 7.954-16.843 17.241-16.843h79.519c9.287 0 17.24 7.556 17.24 16.843v19.157h-114zm-59.835 60.924a32.662 32.662 0 0 1 32.647-29.767h168.369a32.667 32.667 0 0 1 32.655 29.781l.021.219h-233.714zm305.835 60.233h-378v-10.228a37.976 37.976 0 0 1 37.65-37.772h302.7a37.976 37.976 0 0 1 37.65 37.772z" fill="#1ae5be"/></svg>